<svg id="Calque_1" data-name="Calque 1" xmlns="http://www.w3.org/2000/svg" viewBox="0 0 500 500"><defs><style>.cls-1{fill:#2257bc;}</style></defs><path d="M281.19,285.69h-.95q-21.78,0-36.44-14.67t-14.67-36.44V223.46l-.24-59.39A19,19,0,0,0,210,145.14a18.72,18.72,0,0,0-13.6,5.44,18.12,18.12,0,0,0-5.56,13.49v53.71a15.34,15.34,0,0,1-4.5,11.48,15.92,15.92,0,0,1-11.59,4.38,15,15,0,0,1-15.86-15.86V164.07q0-21.52,14.79-36.2T210,113.2q21.54,0,36.32,14.67t14.79,36.2v70.51a19,19,0,0,0,19.17,19.17h.95a15.4,15.4,0,0,1,16.09,16.09,15.32,15.32,0,0,1-4.5,11.47A15.92,15.92,0,0,1,281.19,285.69Z"/><path d="M147.89,138.54c2.27,1.66-2.77-2.47-.23-.17.83.76,1.69,1.47,2.49,2.25s1.51,1.52,2.23,2.31c.49.55,2,2.46.84.94a40.77,40.77,0,0,1,2.58,4c0,.08,2.23,4.75,1.2,2.18a52.07,52.07,0,0,1,2.32,7.73q.42,1.8.75,3.6c0,.21.73,4.84.33,1.7.29,2.32.49,4.66.63,7,.18,3,.24,5.92.24,8.88a14.79,14.79,0,0,0,29.58,0c0-10.64-.86-21.63-3.74-31.9-4-14.17-12.52-25.54-24.29-34.1-6.47-4.71-16.49-1.11-20.24,5.3-4.37,7.48-1.17,15.52,5.31,20.23Z"/><path class="cls-1" d="M474.79,250c-.15-46.08-14.28-92-41.16-129.58A228.71,228.71,0,0,0,326.1,38.47C238.82,6.53,136.54,34.36,77.44,106A227.59,227.59,0,0,0,25.87,233.26,224.49,224.49,0,0,0,57.7,366.46c23.27,38.26,58.21,69.77,99.15,88.09a228.7,228.7,0,0,0,138.24,15.68c90-17.89,163-93.69,176.78-184.53a242.56,242.56,0,0,0,2.92-35.7,14.79,14.79,0,0,0-29.58,0c0,5.59-.22,11.17-.66,16.74q-.27,3.43-.65,6.87c0,.35-.61,4.88-.16,1.52-.24,1.81-.52,3.61-.82,5.41a208.29,208.29,0,0,1-7.3,30.13c-1.64,5.07-3.5,10.05-5.49,15-1.63,4.06,1.23-2.63-.58,1.34-.37.81-.72,1.62-1.08,2.42q-1.92,4.2-4,8.32a208.61,208.61,0,0,1-16,26.37c-1.39,1.95-2.81,3.89-4.27,5.79,2-2.56-.69.86-.91,1.12-.82,1-1.65,2-2.48,3q-5,6-10.48,11.65-5,5.16-10.34,10c-1.95,1.75-3.92,3.46-5.93,5.14-1,.83-2,1.66-3,2.48l-2,1.63c1.09-.85,1.23-.95.4-.32a211.64,211.64,0,0,1-25.82,16.77q-6.35,3.5-12.94,6.54c-1.2.56-2.41,1.09-3.62,1.64-4,1.81,2.72-1.05-1.34.58-2.88,1.16-5.77,2.29-8.69,3.33a208.47,208.47,0,0,1-29.75,8.25q-4,.8-8,1.43c-1.13.18-2.25.35-3.38.51-2.64.37,3.55-.36-.83.09-6,.62-12,1.16-18,1.36a235.83,235.83,0,0,1-32-1.36c-4.51-.47,3,.49-1.51-.19-1.35-.2-2.7-.4-4-.63-2.23-.36-4.46-.77-6.69-1.21-5.73-1.14-11.42-2.52-17-4.14q-7.06-2-14-4.56c-2.29-.84-4.56-1.73-6.82-2.63-.66-.26-3.36-1.44-.75-.3-1.62-.71-3.23-1.42-4.83-2.17a210.16,210.16,0,0,1-27.55-15.36q-6-4-11.73-8.35c2.56,2-.86-.69-1.12-.91-1-.82-2-1.65-3-2.48-2-1.68-4-3.39-5.93-5.14a212.16,212.16,0,0,1-21.65-22.61c-.61-.73-4.32-5.45-2.56-3.15q-2.39-3.12-4.65-6.33-4.55-6.42-8.59-13.17-3.72-6.21-7-12.66c-1.2-2.35-2.36-4.72-3.46-7.12-.56-1.2-1.09-2.41-1.64-3.62q-1-2.36-.07-.12c-.34-.81-.68-1.63-1-2.45A208.56,208.56,0,0,1,60,295.16q-1.74-7.26-3-14.62c-.23-1.35-.43-2.7-.63-4.05-.68-4.47.28,3-.19-1.51-.33-3.21-.69-6.41-.92-9.62a212.33,212.33,0,0,1,.11-32.1c.21-2.75.52-5.49.81-8.24.47-4.51-.49,3,.19-1.51.17-1.12.33-2.25.52-3.37q1.35-8.37,3.38-16.61a218.78,218.78,0,0,1,9.52-29.2c1.63-4.06-1.23,2.63.58-1.34.55-1.21,1.08-2.42,1.64-3.62,1-2.2,2.07-4.38,3.16-6.54q3.7-7.34,8-14.36a183.47,183.47,0,0,1,16-22.53A211.35,211.35,0,0,1,121,103.46q2.43-2.17,5-4.27c1-.83,2-1.66,3-2.48.26-.22,3.68-2.88,1.12-.91q6.24-4.78,12.83-9.07a209.77,209.77,0,0,1,27.65-15.2l3.63-1.61c-2.47,1.08-.35.15.13,0,2.47-1,4.94-2,7.44-2.88q7.53-2.76,15.26-4.93c5.19-1.46,10.45-2.72,15.74-3.77,2.23-.44,4.46-.85,6.69-1.21,1.35-.23,2.7-.43,4-.63q2.64-.37.15,0l2.73-.32a212.7,212.7,0,0,1,32-1.15c5.55.22,11,.74,16.57,1.31,2.95.3.77.08.15,0,1.36.18,2.71.38,4.06.6,3.13.49,6.26,1.06,9.37,1.7A207.72,207.72,0,0,1,318.23,67c2.5.91,5,1.89,7.44,2.88,4.06,1.63-2.63-1.23,1.34.58,1.21.55,2.42,1.08,3.62,1.64q7.19,3.31,14.09,7.18A207.68,207.68,0,0,1,369.91,95.8c-2.56-2,.86.69,1.12.91,1,.82,2,1.65,3,2.48,2,1.68,4,3.39,5.93,5.14q5.82,5.24,11.24,10.9,5,5.19,9.58,10.71c.83,1,1.66,2,2.48,3,.22.26,2.88,3.68.91,1.12q2.39,3.12,4.65,6.33a209.07,209.07,0,0,1,16.2,27c1.18,2.36,2.32,4.75,3.42,7.15.36.8.71,1.61,1.08,2.42,1.81,4-1.05-2.72.58,1.34,2,4.95,3.85,9.93,5.49,15a208.65,208.65,0,0,1,7.52,31.48c.22,1.35.42,2.7.6,4.06-.45-3.36.12,1.17.16,1.52q.38,3.44.65,6.87c.44,5.57.64,11.15.66,16.74a14.79,14.79,0,0,0,29.58,0Z"/><path d="M229.82,239.14C233,260.78,251.63,276,270.68,284c20.67,8.7,45.33,7.27,65.35-2.54C361,269.19,384.48,231,362.87,206c-8.86-10.25-24.53-14.86-37.73-13.84a53.33,53.33,0,0,0-34.78,16.24c-12.19,12.64-17,29.69-21.18,46.29-5.9,23.71-12.32,47.6-22.12,69.73-3.17,7.15-6.51,14.26-10.34,21.09-1.4,2.5-2.87,5-4.46,7.34-.71,1.06-1.44,2.09-2.19,3.11,1.67-2.25-.2.16-.95,1s-1.45,1.47-2.18,2.2c-.33.34-.79.61-1.09,1,.07-.09,2.46-1.54,1.16-.89a17.53,17.53,0,0,0-2.6,1.61c-1.63,1.24,2.91-.7.09-.09-.61.13-3.41,1-.8.32s-1.12-.1-2-.13c-1.74-.05.46,0,.68.08-.64-.17-1.29-.31-1.93-.5a18.05,18.05,0,0,1-1.92-.65c1.46.59.74.35-.18-.26s-1.59-.94-2.35-1.47c.25.17,1.48,1.28.25.15-.52-.48-1-1-1.53-1.45-.06,0-1.62-1.76-.67-.62.58.7-1.2-1.92-1.56-2.55-.83-1.44-.06,0,.06.36-.32-.89-.54-1.79-.8-2.69-.7-2.47-.28,1-.12-1.6,0-.89.39-4.08-.05-1.62a36.43,36.43,0,0,1,1.25-4.72c.5-1.61-.07,0-.2.3.39-.83.82-1.65,1.27-2.44s2.27-3.32.76-1.45a38.19,38.19,0,0,1,2.7-2.84c1.77-1.81-1.18.39,1-.66,2.54-1.2-2.24.31.84-.36a12.32,12.32,0,0,0,1.84-.43c1.65-.67-1.74.47-1.55.21s2.54-.07,2.95-.06c1.88.06,2.43.44.14-.11,1.21.29,2.45.47,3.66.78,2.19.56,4.25,1.43,6.4,2.09,1.58.49-.69-.3-.84-.37.71.33,1.43.64,2.14,1,1.26.6,2.51,1.23,3.74,1.88a129.13,129.13,0,0,1,12.71,7.8c2,1.38,4,2.82,5.91,4.26l1.27,1s-2.21-1.78-1-.75c.86.72,1.76,1.4,2.63,2.1,2.44,2,4.84,4,7.19,6.09,16.71,14.76,40.16,37.67,64.73,30.74,7.48-2.12,14-6.59,19.54-11.88,5.79-5.5,5.54-15.37,0-20.92a15,15,0,0,0-20.92,0,35.59,35.59,0,0,1-2.82,2.53c2.42-1.87-1.49.78-1.64.88-3.09,2,1.65-.21-2,.86-2,.58-1-.43-1.74.29l-1,0q3.38.52.86,0c-1.06-.36-2.18-.65-3.26-1-3.62-1.09,2.46,1.48-1-.46-1.57-.87-3.18-1.66-4.74-2.57C302.28,353.93,297,349,288,341.09c-13.81-12.22-28.74-23.51-45.9-30.52-9.77-4-20.89-6-31.24-3-13.6,4-23.58,16.67-27.23,30a41.47,41.47,0,0,0,10.13,40.23c9.63,9.85,24.64,15.35,38.21,11.63,11-3,18.83-11.49,25.09-20.53,8.47-12.21,14.34-26.34,20-40,9.17-22.05,15.23-44.81,21-67.9,1-3.92,2-7.85,3.16-11.72.53-1.78,1.09-3.55,1.7-5.3.29-.84.59-1.68.9-2.51.21-.54.42-1.09.64-1.63.59-1.45.43-1.06-.5,1.17.18-2.61,3.3-6.54,4.74-8.66.32-.48.9-1.68,1.41-2,0,0-2.56,2.84-.8,1.09,1.37-1.36,2.58-2.85,4-4.16.47-.42,1.34-1.48,1.94-1.67-2.77.88-1.71,1.15-.17.19,1.32-.82,2.58-1.64,3.95-2.37,3.38-1.82-1.66.07,2-.75,1.45-.32,2.84-.78,4.32-1-3,.5,1.61,0,1.87,0,1.43,0,2.86,0,4.29.15-3-.23,2.25.51,2.9.68a29.58,29.58,0,0,1,3.79,1.27c-3.07-1.31.61.57,1,.75l1,.65c-1.38-1.16-1.46-1.21-.22-.16l1,1q-1.32-2,.06.12l.61,1.13q-1-2.38-.16.05l.28,1.26c-.22-1.77-.27-1.77-.15,0,0,.36-.63,4.68,0,1.64a37.42,37.42,0,0,1-1.63,5.79c.85-2.29-1.22,2.52-1.14,2.35-1.06,2-2.29,3.92-3.51,5.84a34.72,34.72,0,0,1-5.43,6.08c-2.45,2.24-9.35,6.08-12.29,7.07a81.15,81.15,0,0,1-9.24,2.34c-4.24.9,2.86-.07-1.45.2-1.8.12-3.59.27-5.4.31a75.85,75.85,0,0,1-9.29-.45c3.51.38-.7-.15-1.2-.25-1.66-.32-3.31-.69-4.94-1.15-1.09-.3-2.15-.64-3.22-1-.5-.18-1-.4-1.5-.57-2.11-.72,3.89,1.82.46.19a83.2,83.2,0,0,1-11-6.13c-.86-.59-1.7-1.2-2.54-1.82,3.26,2.42-.55-.59-1.14-1.13-.82-.75-1.61-1.53-2.37-2.33-.54-.57-3.47-4.39-1.31-1.31a39.71,39.71,0,0,1-4.07-7c1.45,3.33,0-.4-.14-1a38.92,38.92,0,0,1-1-4.89c-1.16-7.91-11.16-12.26-18.19-10.33-8.47,2.33-11.5,10.26-10.33,18.19Z"/></svg>
